<svg width="711" height="318" xmlns="http://www.w3.org/2000/svg">
  <g id="court_case">
   <circle fill="#BA0F5E" cx="32.754687" cy="29.799987" r="29.799988" id="svg_41"/>
   <rect x="22.254687" y="49.899987" fill="#FFFFFF" width="33.3" height="3.6" id="svg_42"/>
   <rect x="25.754687" y="46.399987" fill="#FFFFFF" width="26.5" height="3.6" id="svg_43"/>
   <rect x="-147.921715" y="301.531069" transform="matrix(0.361, 0.9326, -0.9326, 0.361, 372.259, 39.0756)" fill="#FFFFFF" width="21.4" height="18.4" id="svg_44"/>
   <rect x="-161.321715" y="308.131069" transform="matrix(0.361, 0.9326, -0.9326, 0.361, 366.211, 64.7589)" fill="#FFFFFF" width="4.8" height="22.1" id="svg_45"/>
   <rect x="-133.221715" y="314.431069" transform="matrix(0.361, 0.9326, -0.9326, 0.361, 388.834, 42.8464)" fill="#FFFFFF" width="3.1" height="20.5" id="svg_46"/>
   <rect x="-144.121715" y="286.131069" transform="matrix(0.361, 0.9326, -0.9326, 0.361, 355.459, 34.9896)" fill="#FFFFFF" width="3.1" height="20.5" id="svg_47"/>
  </g>
  <g id="judicial_mech">
   <circle id="svg_1" r="29.799988" cy="29.800011" cx="29.800024" fill="#F39200"/>
   <path id="svg_2" d="m51.400036,19.900005h-43.100006c-0.399994,0 -0.699997,-0.300018 -0.699997,-0.700012v-1.399994c0,-0.399994 0.300003,-0.700012 0.699997,-0.700012h43.100006c0.399994,0 0.700012,0.300018 0.700012,0.700012v1.399994c-0.000031,0.500031 -0.300018,0.700012 -0.700012,0.700012z" fill="#FFFFFF"/>
   <path id="svg_3" d="m31.200024,11.100018v36.5c0,0.399994 -0.299988,0.700012 -0.700012,0.700012h-1.399994c-0.399994,0 -0.699982,-0.300018 -0.699982,-0.700012v-36.5c0,-0.399994 0.299988,-0.699982 0.699982,-0.699982h1.399994c0.400024,-0.000031 0.700012,0.299988 0.700012,0.699982z" fill="#FFFFFF"/>
   <rect id="svg_4" height="2.7" width="50.7" fill="#FFFFFF" y="48.200011" x="5.100024"/>
   <rect id="svg_5" height="2.7" width="17.1" fill="#FFFFFF" y="45.900011" x="21.300024"/>
   <path id="svg_6" d="m24.400036,32.100018c0,2.799988 -4.000015,5 -8.900009,5s-8.900009,-2.300018 -8.900009,-5h17.800018l0,0z" fill="#FFFFFF"/>
   <circle id="svg_7" r="2.099998" cy="18.600011" cx="15.500024" fill="#FFFFFF"/>
   <circle id="svg_8" r="2.100006" cy="18.600011" cx="44.200024" fill="#FFFFFF"/>
   <polyline id="svg_9" points="7.900020599365234,32.60001754760742 15.50002670288086,21.000011444091797 23.100017547607422,32.60001754760742 " stroke-miterlimit="10" stroke-width="3" stroke="#FFFFFF" fill="none"/>
   <path id="svg_10" d="m53.100018,32.100018c0,2.799988 -4,5 -8.899994,5c-4.899994,0 -8.899994,-2.300018 -8.899994,-5h17.799988l0,0z" fill="#FFFFFF"/>
   <polyline id="svg_11" points="36.60001754760742,32.60001754760742 44.20002365112305,21.000011444091797 51.80002975463867,32.60001754760742 " stroke-miterlimit="10" stroke-width="3" stroke="#FFFFFF" fill="none"/>
  </g>
  <g id="committee">
   <circle id="svg_12" r="29.800003" cy="29.800024" cx="29.800021" fill="#785198"/>
   <path id="svg_13" d="m48.900021,30.600018c-2.200012,0.899994 -3.899994,0.600006 -5.5,-0.800018c-0.5,1.100006 -0.299988,2.200012 0.899994,2.900024c1.800018,1 3.700012,1.799988 5.600006,2.599976c0.5,0.200012 1.100006,0.300018 1.600006,0.5c2.299988,0.900024 3.299988,3 2.699982,5.400024c-9.899994,0 -19.899994,0 -29.899994,0c-0.600006,-3.100006 0.600006,-5 3.700012,-5.700012c2.199982,-0.5 4.299988,-1.200012 6,-2.700012c1.100006,-0.899994 1.399994,-1.599976 1.100006,-3.099976c-1.600006,1.399994 -3.300018,1.799988 -5.5,0.899994c2.5,-1.100006 2.199982,-3.100006 1.899994,-5.100006c-0.300018,-2.600006 -0.899994,-5.200012 -0.300018,-7.899994c0.900024,-3.899994 4.600006,-6.600006 8.600006,-6.300018c4,0.300018 7.399994,3.5 7.600006,7.400024c0.100006,2.599976 -0.399994,5.199982 -0.600006,7.799988c-0.199982,1.600006 -0.100006,3.200012 2.100006,4.100006z" fill="#FFFFFF"/>
   <path id="svg_14" d="m31.300014,30.600018c-2.200012,0.899994 -3.899994,0.600006 -5.5,-0.800018c-0.5,1.100006 -0.300018,2.200012 0.899994,2.900024c1.799988,1 3.700012,1.799988 5.600006,2.599976c0.5,0.200012 1.100006,0.300018 1.600006,0.5c2.299988,0.900024 3.299988,3 2.699982,5.400024c-9.899994,0 -19.899994,0 -29.899994,0c-0.600006,-3.100006 0.600006,-5 3.700012,-5.700012c2.199982,-0.5 4.299988,-1.200012 6,-2.700012c1.099976,-0.899994 1.399994,-1.599976 1.099976,-3.099976c-1.599976,1.399994 -3.299988,1.799988 -5.5,0.899994c2.5,-1.100006 2.200012,-3.100006 1.900024,-5.100006c-0.300018,-2.600006 -0.900024,-5.200012 -0.300018,-7.899994c0.899994,-3.899994 4.600006,-6.600006 8.600006,-6.300018c4,0.300018 7.399994,3.5 7.600006,7.400024c0.100006,2.599976 -0.399994,5.199982 -0.600006,7.799988c-0.199982,1.600006 0,3.200012 2.100006,4.100006z" fill="#FFFFFF"/>
   <path id="svg_15" d="m41.700008,34.200024c-2.5,-1 -2.700012,-2.799988 -2.5,-4.799988c0.299988,-3 0.799988,-6.100006 0.700012,-9.100006c-0.200012,-4.600006 -4.200012,-8.399994 -8.900024,-8.700012c-4.699982,-0.299988 -9,2.899994 -10.099976,7.399994c-0.700012,3.100006 0,6.200012 0.399994,9.300018c0.299988,2.299988 0.600006,4.699982 -2.300018,6c2.5,1 4.600006,0.5 6.5,-1c0.300018,1.699982 0.100006,2.5 -1.299988,3.600006c-2.100006,1.699982 -4.5,2.5 -7.100006,3.099976c-3.5,0.900024 -5,3.100006 -4.299988,6.700012c11.699982,0 23.299988,0 35,0c0.699982,-2.899994 -0.5,-5.299988 -3.200012,-6.399994c-0.600006,-0.200012 -1.299988,-0.300018 -1.799988,-0.5c-2.200012,-1 -4.399994,-1.899994 -6.5,-3.100006c-1.399994,-0.899994 -1.600006,-2.100006 -1.100006,-3.399994c1.800018,1.600006 3.900024,2 6.5,0.899994z" fill="#FFFFFF"/>
   <path id="svg_16" d="m48.200008,47.200024h-35.899994l-0.100006,-0.399994c-0.700012,-3.899994 0.799988,-6.399994 4.700012,-7.399994c2.799988,-0.700012 5,-1.5 6.899994,-3c0.899994,-0.700012 1.199982,-1.300018 1.199982,-2.200012c-1.099976,0.799988 -2.299988,1.100006 -3.5,1.100006c-0.899994,0 -1.799988,-0.200012 -2.799988,-0.600006l-1.200012,-0.5l1.200012,-0.5c2.5,-1.100006 2.299988,-3.100006 2,-5.299988l0,-0.200012c-0.100006,-0.600006 -0.200012,-1.200012 -0.299988,-1.799988c-0.400024,-2.5 -0.700012,-5 -0.100006,-7.600006c1.100006,-4.5 5.299988,-7.800018 10,-7.800018c0.199982,0 0.399994,0 0.699982,0c5,0.300018 9.200012,4.5 9.400024,9.200012c0.099976,2.200012 -0.200012,4.399994 -0.400024,6.5c-0.099976,0.899994 -0.199982,1.799988 -0.299988,2.700012c-0.200012,2.099976 0.100006,3.399994 2.200012,4.299988l1.299988,0.5l-1.299988,0.5c-1,0.399994 -2,0.600006 -2.900024,0.600006h0c-1.199982,0 -2.399994,-0.399994 -3.399994,-1.100006c-0.100006,0.799988 0.200012,1.5 1.100006,2c1.5,0.899994 3.299988,1.700012 4.899994,2.399994c0.5,0.200012 1,0.399994 1.5,0.700012c0.300018,0.100006 0.600006,0.199982 0.899994,0.299988c0.300018,0.100006 0.600006,0.100006 0.900024,0.300018c2.899994,1.099976 4.299988,3.799988 3.5,7l-0.200012,0.299988zm-34.899994,-1.100006h34.100006c0.399994,-2.5 -0.600006,-4.399994 -2.900024,-5.300018c-0.199982,-0.099976 -0.5,-0.199982 -0.799988,-0.199982c-0.399994,-0.100006 -0.700012,-0.200012 -1.100006,-0.300018c-0.5,-0.199982 -1,-0.399994 -1.5,-0.699982c-1.699982,-0.700012 -3.399994,-1.5 -5,-2.399994c-1.600006,-0.900024 -2,-2.400024 -1.299988,-4.100006l0.299988,-0.700012l0.600006,0.5c1,0.899994 2.100006,1.399994 3.299988,1.399994h0c0.400024,0 0.900024,-0.099976 1.300018,-0.199982c-1.700012,-1.200012 -1.800018,-3 -1.700012,-4.700012c0.100006,-0.899994 0.200012,-1.799988 0.300018,-2.699982c0.199982,-2.100006 0.5,-4.200012 0.399994,-6.300018c-0.200012,-4.199982 -3.899994,-7.899994 -8.399994,-8.199982c-0.200012,0 -0.400024,0 -0.600006,0c-4.200012,0 -7.899994,2.899994 -8.899994,7c-0.600006,2.399994 -0.200012,4.699982 0.099976,7.199982c0.100006,0.600006 0.200012,1.200012 0.300018,1.899994l0,0.200012c0.199982,2 0.5,4.299988 -1.5,5.799988c0.399994,0.100006 0.799988,0.100006 1.199982,0.100006c1.200012,0 2.400024,-0.5 3.600006,-1.5l0.700012,-0.600006l0.199982,0.900024c0.400024,1.899994 0,2.899994 -1.5,4.099976c-2.299988,1.900024 -5,2.600006 -7.299988,3.200012c-3.099976,0.800018 -4.399994,2.600006 -3.899994,5.600006z" fill="#FFFFFF"/>
   <path id="svg_17" d="m41.700008,34.200024c-2.600006,1 -4.600006,0.700012 -6.399994,-0.899994c-0.600006,1.299988 -0.399994,2.600006 1.100006,3.399994c2.099976,1.200012 4.299988,2.100006 6.5,3.100006c0.599976,0.299988 1.199982,0.299988 1.799988,0.5c2.600006,1 3.899994,3.5 3.200012,6.399994c-11.700012,0 -23.300018,0 -35,0c-0.700012,-3.600006 0.699982,-5.899994 4.299988,-6.700012c2.5,-0.599976 5,-1.399994 7.100006,-3.099976c1.299988,-1.100006 1.600006,-1.900024 1.299988,-3.600006c-1.899994,1.600006 -3.899994,2.100006 -6.5,1c2.899994,-1.300018 2.600006,-3.700012 2.300018,-6c-0.400024,-3.100006 -1.100006,-6.100006 -0.400024,-9.300018c1.100006,-4.5 5.300018,-7.699982 10.100006,-7.399994c4.600006,0.300018 8.700012,4.100006 8.899994,8.700012c0.100006,3 -0.399994,6.100006 -0.699982,9.100006c-0.299988,2 -0.100006,3.799988 2.399994,4.799988z" fill="#FFFFFF"/>
   <path id="svg_18" d="m48.200008,47.200024h-35.899994l-0.100006,-0.399994c-0.700012,-3.899994 0.799988,-6.399994 4.700012,-7.399994c2.799988,-0.700012 5,-1.5 6.899994,-3c0.899994,-0.700012 1.199982,-1.300018 1.199982,-2.200012c-1.099976,0.799988 -2.299988,1.100006 -3.5,1.100006c-0.899994,0 -1.799988,-0.200012 -2.799988,-0.600006l-1.200012,-0.5l1.200012,-0.5c2.5,-1.100006 2.299988,-3.100006 2,-5.299988l0,-0.200012c-0.100006,-0.600006 -0.200012,-1.200012 -0.299988,-1.799988c-0.400024,-2.5 -0.700012,-5 -0.100006,-7.600006c1.100006,-4.5 5.299988,-7.800018 10,-7.800018c0.199982,0 0.399994,0 0.699982,0c5,0.300018 9.200012,4.5 9.400024,9.200012c0.099976,2.200012 -0.200012,4.399994 -0.400024,6.5c-0.099976,0.899994 -0.199982,1.799988 -0.299988,2.700012c-0.200012,2.099976 0.100006,3.399994 2.200012,4.299988l1.299988,0.5l-1.299988,0.5c-1,0.399994 -2,0.600006 -2.900024,0.600006c-1.199982,0 -2.399994,-0.399994 -3.399994,-1.100006c-0.100006,0.799988 0.200012,1.5 1.100006,2c1.5,0.899994 3.299988,1.700012 4.899994,2.399994c0.5,0.200012 1,0.399994 1.5,0.700012c0.300018,0.100006 0.600006,0.199982 0.899994,0.299988c0.300018,0.100006 0.600006,0.100006 0.900024,0.300018c2.899994,1.099976 4.299988,3.799988 3.5,7l-0.200012,0.299988zm-34.899994,-1.100006h34.100006c0.399994,-2.5 -0.600006,-4.399994 -2.900024,-5.300018c-0.199982,-0.099976 -0.5,-0.199982 -0.799988,-0.199982c-0.399994,-0.100006 -0.700012,-0.200012 -1.100006,-0.300018c-0.5,-0.199982 -1,-0.399994 -1.5,-0.699982c-1.699982,-0.700012 -3.399994,-1.5 -5,-2.399994c-1.600006,-0.900024 -2,-2.400024 -1.299988,-4.100006l0.299988,-0.700012l0.600006,0.5c1.399994,1.300018 2.899994,1.600006 4.700012,1.200012c-1.700012,-1.200012 -1.800018,-3 -1.700012,-4.700012c0.100006,-0.899994 0.200012,-1.799988 0.299988,-2.699982c0.200012,-2.100006 0.5,-4.200012 0.400024,-6.300018c-0.200012,-4.199982 -3.900024,-7.899994 -8.400024,-8.199982c-0.199982,0 -0.399994,0 -0.599976,0c-4.200012,0 -7.900024,2.899994 -8.900024,7c-0.599976,2.399994 -0.199982,4.699982 0.100006,7.199982c0.100006,0.600006 0.200012,1.200012 0.300018,1.899994l0,0.200012c0.199982,2 0.5,4.299988 -1.5,5.799988c1.699982,0.400024 3.299988,0 4.799988,-1.299988l0.700012,-0.600006l0.199982,0.899994c0.399994,1.900024 0,2.900024 -1.5,4.100006c-2.299988,1.899994 -5,2.600006 -7.299988,3.200012c-3.199982,0.700012 -4.5,2.5 -4,5.5z" fill="#785198"/>
  </g>
  <g id="special_rapporteur">
   <circle id="svg_19" r="29.800003" cy="29.800036" cx="29.800002" fill="#46749C"/>
   <path id="svg_20" d="m41.600002,34.000042c-2.600006,1 -4.600006,0.700012 -6.399994,-0.899994c-0.600006,1.299988 -0.399994,2.600006 1.100006,3.399994c2.099976,1.200012 4.299988,2.100006 6.5,3.100006c0.599976,0.299988 1.199982,0.299988 1.799988,0.5c2.600006,1 3.899994,3.5 3.200012,6.399994c-11.700012,0 -23.300018,0 -35,0c-0.700012,-3.600006 0.699982,-5.899994 4.299988,-6.699982c2.5,-0.600006 5,-1.400024 7.100006,-3.100006c1.299988,-1.100006 1.600006,-1.899994 1.299988,-3.600006c-1.899994,1.600006 -3.899994,2.100006 -6.5,1c2.899994,-1.299988 2.600006,-3.700012 2.300018,-6c-0.400024,-3.100006 -1.100006,-6.100006 -0.400024,-9.299988c1.100006,-4.5 5.300018,-7.700012 10.100006,-7.400024c4.600006,0.300018 8.700012,4.100006 8.899994,8.700012c0.100006,3 -0.399994,6.100006 -0.699982,9.100006c-0.300018,1.999969 -0.100006,3.799988 2.399994,4.799988z" fill="#FFFFFF"/>
  </g>
  <g id="declaration">
   <circle id="svg_21" r="29.799988" cy="29.799987" cx="29.800014" fill="#9AB425"/>
   <path id="svg_22" d="m39.89999,14.799999c-5.799988,0 -11.400024,0 -17.099976,0c-5.100037,0 -4.700012,-0.600006 -4.700012,5.200012c0,5.099976 0,10.099976 0,15.199982c0,0.700012 0,1.300018 0,2.100006c-0.900024,0 -1.700012,0 -2.5,0c0,-0.600006 -0.100037,-1.100006 -0.100037,-1.700012c0,-6.199982 0,-12.5 0,-18.699982c0,-3.399994 1.5,-5.100006 4.5,-5.100006c8,0 15.900024,0 23.900024,0c2.200012,0 3.599976,1.5 4,3.799988c0.299988,2.100006 -0.799988,4.200012 -2.700012,4.900024c-0.299988,0.099976 -0.700012,0.099976 -1.200012,0.199982c-0.099976,-1.299988 -0.599976,-2.5 0.800049,-3.399994c0.299988,-0.200012 0.399963,-1.200012 0.199951,-1.600006c-0.199951,-0.399994 -0.899963,-0.899994 -1.299988,-0.799988c-0.399963,0 -0.899963,0.600006 -1.200012,1.100006c-0.199951,0.399994 -0.099976,1.099976 -0.099976,1.599976c0,8.400024 0,16.700012 0,25.100006c0,3.600006 -1.5,5.200012 -4.700012,5.200012c-7.799988,0 -15.700012,0 -23.5,0c-1.700012,0 -3,-0.800018 -3.700012,-2.5c-0.699951,-1.600006 -0.699951,-3.300018 0.300049,-4.5c0.799988,-1 2.199951,-1.899994 3.299988,-1.899994c7.5,-0.200012 15,-0.100006 22.5,-0.100006c0.5,0 1.399963,0.399994 1.599976,0.899994c0.200012,0.600006 -0.200012,1.399994 -0.299988,2.100006c-0.200012,0.699982 -0.5,1.5 -0.5,2.199982c0,0.200012 1.200012,0.700012 1.299988,0.600006c0.5,-0.600006 1.100037,-1.399994 1.100037,-2.100006c0.200012,-9.100006 0.099976,-18.299988 0.099976,-27.799988zm-5.299988,27.199982c-6.799988,0 -13.599976,0 -20.299988,0.100006c-0.5,0 -0.900024,0.899994 -1.400024,1.399994c0.5,0.5 1,1 1.5,1.5c0.100037,0.100006 0.400024,0 0.600037,0c6.099976,0 12.199951,0 18.299988,0c0.399963,0 0.799988,-0.100006 1.299988,-0.100006c0,-1 0,-1.799988 0,-2.899994z" fill="#FFFFFF"/>
  </g>
  <g id="treaty">
   <circle id="svg_23" r="29.799999" cy="30.000011" cx="30.000027" fill="#00A19A"/>
   <path id="svg_24" d="m685.700012,314.799988" fill="#FFFFFF"/>
   <path id="svg_25" d="m701.799988,307.299988c0.299988,-0.399994 0.400024,-1 0.400024,-1.5l0,0c-0.100037,-0.600006 -0.400024,-1.200012 -1,-1.600006l-3.100037,-2.100006c-0.099976,-0.099976 -0.299988,-0.199982 -0.5,-0.199982c-4.299988,-3 -11,-7.600006 -12.5,-8.200012c-1.099976,-0.5 -2.700012,0.800018 -2.700012,0.800018l-4.399963,2.799988c-3.700012,2.299988 -6.600037,-2.100006 -4.200012,-4.399994c1.599976,-1.600006 5.799988,-5.5 5.799988,-5.5s-0.799988,-0.600006 -1.599976,-0.300018c-0.799988,0.300018 -5.600037,4.300018 -5.600037,4.300018l-6.199951,-0.600006l-2.700012,9.5l7.299988,5l2.200012,-2.399994c0.899963,-1 2.599976,-1.100006 3.599976,-0.200012c0.5,0.5 0.799988,1.100006 0.799988,1.800018c0.900024,-0.5 2.100037,-0.300018 2.900024,0.399994c0.5,0.5 0.799988,1.100006 0.799988,1.799988c0,0.100006 0,0.200012 0,0.300018c0.900024,-0.5 2.100037,-0.400024 2.900024,0.399994c0.5,0.5 0.799988,1.100006 0.799988,1.799988c0,0.600006 -0.099976,1.100006 -0.400024,1.5c0.700012,0 1.400024,0.200012 1.900024,0.600006c0.5,0.5 0.799988,1.100006 0.799988,1.799988c0,0.700012 -0.200012,1.300018 -0.700012,1.900024l-0.599976,0.599976c1,0.400024 2.200012,0.100006 2.799988,-0.799988c0.299988,-0.399994 0.400024,-1 0.400024,-1.5v0c-0.100037,-0.600006 -0.400024,-1.200012 -0.900024,-1.5l4.400024,-2.399994l2,1.399994c0.5,0.299988 1.099976,0.5 1.700012,0.399994c0.599976,-0.100006 1.099976,-0.399994 1.399963,-0.899994c0.299988,-0.399994 0.400024,-1 0.400024,-1.5l0,0c-0.100037,-0.600006 -0.400024,-1.200012 -1,-1.600006l-0.100037,-0.100006l0,0l1.700012,1.200012c0.5,0.299988 1.100037,0.5 1.700012,0.399994c0.600037,-0.599976 1.100037,-0.899994 1.5,-1.399994z" fill="#FFFFFF"/>
   <path id="svg_26" d="m681.900024,287.600006l-5.900024,5.200012c-1.199951,0.899994 -0.099976,3.699982 2.5,2.100006c2.600037,-1.600006 5.400024,-3.700012 5.400024,-3.700012s1,-1 3,0.200012c1.299988,0.799988 15.099976,10 15.900024,10.199982c0.799988,0.300018 1.199951,-0.399994 1.799988,-0.600006c0.599976,-0.199982 6.099976,-2.199982 6.099976,-2.199982l-5,-11.200012c0,0 -3.5,3.700012 -4.700012,3.5c-1.099976,-0.100006 -12.099976,-3.799988 -12.099976,-3.799988s-3.700012,-1.300018 -7,0.299988z" fill="#FFFFFF"/>
   <path id="svg_27" d="m679.599976,307.200012c0,-0.399994 -0.200012,-0.799988 -0.5,-1.100006c-0.599976,-0.600006 -1.700012,-0.5 -2.299988,0.100006l-2.400024,2.600006c-0.299988,0.299988 -0.399963,0.699982 -0.399963,1.199982c0,0.400024 0.199951,0.800018 0.5,1.100006c0.299988,0.300018 0.699951,0.399994 1,0.399994c0.5,0 0.899963,-0.199982 1.199951,-0.5l2.400024,-2.599976c0.400024,-0.300018 0.5,-0.800018 0.5,-1.200012z" fill="#FFFFFF"/>
   <path id="svg_28" d="m683.400024,309.600006c0,-0.399994 -0.200012,-0.799988 -0.5,-1.100006c-0.599976,-0.599976 -1.700012,-0.5 -2.299988,0.100006l-3,3.300018c-0.299988,0.299988 -0.400024,0.699982 -0.400024,1.199982c0,0.399994 0.200012,0.800018 0.5,1.100006c0.299988,0.299988 0.700012,0.399994 1,0.399994l0,0c0.5,0 0.900024,-0.199982 1.200012,-0.5l3,-3.299988c0.399963,-0.400024 0.5,-0.800018 0.5,-1.200012z" fill="#FFFFFF"/>
   <path id="svg_29" d="m685,312.700012c-0.599976,-0.600006 -1.700012,-0.5 -2.299988,0.100006l-1.799988,2c-0.300049,0.299988 -0.400024,0.699982 -0.400024,1.199982c0,0.400024 0.200012,0.800018 0.5,1.100006c0.299988,0.300018 0.700012,0.399994 1,0.399994l0,0c0.5,0 0.900024,-0.199982 1.200012,-0.5l1.799988,-2c0.299988,-0.299988 0.400024,-0.699982 0.400024,-1.199982c0.099976,-0.400024 -0.100037,-0.800018 -0.400024,-1.100006z" fill="#FFFFFF"/>
   <path id="svg_30" d="m675.400024,303.799988c-0.599976,-0.600006 -1.700012,-0.5 -2.299988,0.100006l-1.799988,2c-0.600037,0.699982 -0.600037,1.699982 0.099976,2.299988c0.299988,0.300018 0.700012,0.399994 1,0.399994l0,0c0.5,0 0.900024,-0.199982 1.200012,-0.5l1.799988,-2c0.699951,-0.699982 0.599976,-1.699982 0,-2.299988z" fill="#FFFFFF"/>
   <path id="svg_31" d="m686.799988,306.100006c-0.599976,0.100006 -1.099976,0.399994 -1.400024,0.899994c-0.699951,1 -0.399963,2.5 0.600037,3.100006l4.099976,2.800018c0.5,0.299988 1.100037,0.5 1.700012,0.399994c0.599976,-0.100006 1.099976,-0.399994 1.400024,-0.899994c0.299988,-0.400024 0.399963,-1 0.399963,-1.5c-0.099976,-0.600006 -0.399963,-1.200012 -1,-1.600006l-4.099976,-2.800018c-0.5,-0.399994 -1.099976,-0.600006 -1.700012,-0.399994z" fill="#FFFFFF"/>
  </g>
</svg>